<?xml version="1.0" encoding="utf-8"?>
<!-- Generator: Adobe Illustrator 15.1.0, SVG Export Plug-In . SVG Version: 6.00 Build 0)  -->
<!DOCTYPE svg PUBLIC "-//W3C//DTD SVG 1.1//EN" "http://www.w3.org/Graphics/SVG/1.1/DTD/svg11.dtd">
<svg version="1.1" id="Layer_1" xmlns="http://www.w3.org/2000/svg" xmlns:xlink="http://www.w3.org/1999/xlink" x="0px" y="0px"
	 width="141.832px" height="53.928px" viewBox="0 0 141.832 53.928" enable-background="new 0 0 141.832 53.928"
	 xml:space="preserve">
<g>
	<defs>
		<rect id="SVGID_1_" width="141.832" height="53.928"/>
	</defs>
	<clipPath id="SVGID_2_">
		<use xlink:href="#SVGID_1_"  overflow="visible"/>
	</clipPath>
	<path clip-path="url(#SVGID_2_)" fill="#7A7C7E" d="M119.52,14.616c0.505-0.072,1.009,0,1.08,0.144
		c0.217,0.216,0.36,0.792-0.071,0.864c-0.288,0.072-0.648,0.144-1.009,0.072v2.088c0.505,0.072,1.009,0.072,1.44-0.144
		c0.864-0.288,1.008-0.72,1.08-1.368c0-0.648,0.288-2.232,0.216-2.952c-0.144-0.792-0.576-1.008-0.864-1.08
		c-0.359-0.072-1.512-0.072-1.872,0V14.616z M119.52,21.816v-3.024h1.872c0.505,0,1.297,0.216,1.297-0.432
		c0-0.576,0.287-2.664,0.287-3.384c0-0.72-0.144-4.464-0.216-4.968c0-0.576,0.072-1.872-0.504-2.16
		c-0.647-0.288-1.296-0.144-2.016,0c-0.216,0.072-0.433,0.144-0.721,0.216V5.328c0.648-0.144,1.584-0.216,2.017-0.288
		c0.72-0.144,2.16-0.144,2.88,0.288s1.296,1.656,1.368,2.52c0.072,0.792,0.072,2.952,0.072,4.608v4.824
		c0.071,1.008-0.433,1.44,1.008,1.512c1.368,0.072,2.952,0.144,3.384-0.432c0.36-0.576,0.504-1.44,0.504-1.944
		c0-0.576,0.145-1.152-0.288-1.224c-0.36-0.072-1.8-0.432-1.8-1.224c-0.072-0.792,0.216-1.152,0.72-1.152
		c0.576,0.072,1.152,0.216,1.368,0.072s0.216-1.296,0.216-1.296s-0.216-0.216-1.439-0.216c-1.152,0-1.729-0.144-1.296-0.936
		c0.432-0.792,0.504-0.936,1.151-1.008c0.648,0,1.44,0.216,1.584,0c0.216-0.216,0.288-1.152-0.144-1.224
		c-0.433-0.144-1.152,0.072-2.088-0.216c-0.864-0.288-1.584-0.72-0.864-1.08c0.647-0.432,1.439-0.72,1.872-1.008
		c0.432-0.36,1.439-0.144,1.872-0.144c0.432,0.072,3.096,0.576,3.24,2.16c0.144,1.584-0.072,3.6-0.36,4.968
		s-1.152,4.032-1.152,4.752c0.072,0.648-0.432,0.864,2.305,1.08c2.663,0.216,5.76,0.36,6.048,0.36c0.359,0,0,0.648-1.009,1.584
		c-1.008,1.008-1.296,1.944-1.655,2.088c-0.36,0.216-1.872-0.072-2.736-0.144c-1.656-0.288-4.536-0.576-4.752-0.648
		c-0.216-0.072-0.288,0.648,0.576,0.864c0.936,0.288,2.016,1.656,2.52,2.592c0.504,1.008,0.721,1.44,0,1.152
		c-0.792-0.288-1.655,0.072-2.231,0.432c-0.504,0.36-1.296,0.72-2.448,0.504c-1.08-0.144-1.8-1.584-2.16-2.232
		c-0.359-0.72,0.288-1.368,0.648-1.44c0.359-0.144,1.08-1.296,1.08-1.728c0-0.432-0.36-0.288-1.44-0.36s-3.023-0.432-7.776,0
		C120.096,21.816,119.808,21.816,119.52,21.816 M119.52,11.016c0.288-0.072,0.576-0.072,0.792-0.072
		c0.792-0.072,0.792-0.216,0.864-0.864s0.072-0.432-0.144-0.648c-0.145-0.144-0.792-0.216-1.513-0.216V11.016z M118.584,14.688
		c0.216,0,0.576-0.072,0.936-0.072V12.24h-0.071c-0.288,0.072-0.792,0-0.937-0.216c-0.071-0.216-0.144-0.576,0.072-0.792
		c0.144-0.216,0.504-0.216,0.936-0.216v-1.8h-1.079c-1.009,0-0.576-0.288-0.721-0.504c-0.216-0.288-0.432-0.648-0.792-0.648
		c-0.288,0-0.863,0.432-1.151,0.864c-0.288,0.504-0.217,2.088-0.217,2.952c0,0.864,0,5.4,0.072,6.12
		c0,0.648-0.432,1.152-1.008,1.296c-0.576,0.144-2.016,0.216-2.88,0.36c-0.937,0.144-0.937,0.216-1.008-1.008
		c-0.072-1.152,0.071-0.72,0.216-1.368c0.216-0.72,0.936-0.576,1.8-1.08s0.792-0.72,0.72-1.224
		c-0.071-0.576-1.008-0.216-1.655-0.216c-0.648,0.072-1.08,0.144-1.08-0.504c0-0.576,0.071-0.576,0.359-0.72s1.008-0.144,1.44-0.36
		c0.36-0.144,0.647-0.504,0.647-0.792s-0.071-0.864-0.504-1.008c-0.359-0.144-0.936,0-1.368,0.144
		c-0.504,0.144-0.647,0.072-0.647-0.576c0-0.648,0.288-0.864,0.36-1.152c0.071-0.36,1.224-0.432,1.584-0.648
		c0.359-0.216,0.863-0.36,1.439-0.936c0.648-0.504,0.576-0.936-0.072-1.368c-0.72-0.432-0.863-0.432-1.296-0.432
		c-0.359-0.072-1.224-0.072-1.512,0c-0.288,0-1.224,0-1.512,0.288c-0.288,0.288-0.648,0.216-1.152,0.432
		c-0.432,0.144-0.504,0.36-0.647,0.864c-0.217,0.504-0.36,1.08-0.288,2.016c0,0.864,0.144,2.448,0.144,3.744
		c0.072,1.368,0.36,6.408,0.36,6.408s-0.937,0.288-1.944,0.504c-0.936,0.216-1.872,0.504-3.6,0.936
		c-1.801,0.432-1.152,1.152-0.721,2.592c0.433,1.44,2.809,0.936,3.816,0.504c1.08-0.504,4.68-1.512,5.472-1.512
		s0.36,1.224-0.144,2.16c-0.433,0.936-1.368,2.016-1.368,2.016s1.728,1.152,2.952,1.224c1.296,0.071,1.944-1.224,2.016-2.088
		c0.072-0.864-1.368-2.448-1.872-2.88s-0.071-0.72,0.288-0.864c0.36-0.144,2.448-0.504,6.552-0.936v-3.024h-0.863
		c-0.648,0-0.937,0-0.937-0.504c0-0.432,0.145-0.576,0.721-0.576c0.287,0,0.647,0.072,1.079,0.072v-2.088
		c-0.216,0-0.432,0-0.647-0.072C118.224,15.408,118.008,14.76,118.584,14.688 M119.52,5.328v2.736
		c-0.504,0.072-1.079,0.072-1.512-0.36c-0.72-0.648-0.288-1.008-0.432-1.44c-0.072-0.36,0.72-0.576,1.151-0.72
		C118.944,5.472,119.16,5.4,119.52,5.328"/>
	<path clip-path="url(#SVGID_2_)" fill="#7A7C7E" d="M88.775,9.576c0.433,0.36,0,1.944-0.504,2.808
		c-0.432,0.864-0.504,1.44,0.217,1.44c0.72,0,1.151-0.288,2.159-0.936c0.937-0.576,2.305-1.944,2.593-2.736
		c0.287-0.72,0.071-1.656-0.433-2.304c-0.576-0.576-1.08-0.936-1.656-0.864C90.504,7.128,90,7.416,89.063,7.488
		c-1.008,0.144-1.296,0.216-2.231,0.36c-0.864,0.072-0.576-0.288-0.648-0.576s-0.504-0.72-0.864-0.72
		c-0.432,0-1.079,0.288-1.224,0.72c-0.144,0.504-0.504,0.792-1.08,0.864c-0.647,0.072-1.728,0.072-2.52,0
		c-0.721-0.072-1.44,0.288-1.729,0.576c-0.288,0.216-0.936,1.224-0.072,1.224c0.864,0,1.44-0.144,2.448-0.216
		c0.937-0.072,0.937,0.216,1.008,0.648c0.145,0.504-0.359,1.08-1.367,1.944c-1.08,0.936-0.864,1.08-0.36,1.152
		c0.504,0.072,1.584-0.072,2.088-0.216c0.504-0.072,2.448-1.728,2.952-2.448c0.504-0.72,0.576-1.44,1.439-1.512
		C87.479,9.288,88.271,9.216,88.775,9.576"/>
	<path clip-path="url(#SVGID_2_)" fill="#7A7C7E" d="M97.344,16.56c-0.216-0.288-0.36-0.648-0.72-0.864
		c-0.36-0.144-1.584,0-2.305,0.144c-0.792,0.072-1.439,0.216-1.655-0.072c-0.217-0.216-0.721-0.576-0.864-0.648
		c-0.216,0-0.864,0-1.152,0.504c-0.216,0.576-0.504,0.792-1.439,1.08c-0.937,0.216,0.359-0.216-0.937,0.216
		c-1.296,0.504-0.072,1.368,0.576,1.44c0.72,0.144,0.792,0.288,0.72,0.576c0,0.288-0.647,1.368-1.439,2.232
		c-0.504,0.504-1.008,1.008-0.937,1.224c0.072,0.144,0.433,0.072,0.576,0.072c0.145,0,0.288,0,0.432-0.072
		c0.217-0.072,0.433-0.144,0.648-0.216c0.504-0.216,0.936-0.576,1.296-0.864c0.72-0.576,1.512-1.8,1.944-2.808
		c0.432-1.008,1.512-1.008,1.8-0.216c0.288,0.72,0,1.44-0.144,1.944c0,0.144-0.145,0.36-0.217,0.504
		c-0.071,0.216-0.288,0.432-0.432,0.72c-0.288,0.504-0.576,1.008-0.648,1.296c0,0-0.071,0.072,0,0.144
		c0.145,0.216,1.08-0.288,2.376-1.008c0.217-0.072,0.36-0.216,0.576-0.432h0.072c0.504-0.432,1.008-1.008,1.44-1.584
		c0.216-0.36,0.432-0.72,0.575-1.152C97.775,17.784,97.56,16.92,97.344,16.56"/>
	<path clip-path="url(#SVGID_2_)" fill="#7A7C7E" d="M84.456,16.704c-0.432,0.072-2.232,0.072-2.736,0.072s-0.288-0.36-0.432-0.576
		c-0.145-0.288-0.432-0.432-0.648-0.576c-0.288-0.216-0.647,0.36-0.936,0.864c-0.288,0.504-1.08,0.648-1.44,0.792
		c-0.359,0.072-1.224,0.144-2.088,0.216c-0.864,0.144-0.432,0.144-0.792,0.36c-0.359,0.288-0.216,0.288-0.359,0.792
		c-0.145,0.576,0.72,0.864,1.367,0.792c0.648-0.072,1.225-0.576,1.368-0.072c0.072,0.072,0.072,0.144,0,0.216
		c-0.071,0.576-0.504,1.008-0.863,1.368c-0.288,0.288-0.505,0.504-0.721,0.72c-0.864,0.936-1.008,1.368-0.216,1.44
		c0.864,0.144,1.584-0.576,2.304-1.08c0.648-0.36,1.225-0.936,1.656-1.44c0.288-0.36,0.576-0.72,0.792-1.152
		c0.648-1.152,1.152-0.792,1.8-0.576c0.648,0.288,0.504,0.936,0.504,1.44c0,0.216-0.071,0.432-0.144,0.576
		c-0.145,0.288-0.36,0.576-0.576,0.792c-0.216,0.36-0.504,1.224-1.152,2.16c-0.72,0.936-0.432,1.08-0.216,1.08
		s2.088-0.432,3.672-2.52c0.145-0.216,0.217-0.36,0.36-0.504c0.288-0.504,0.576-1.008,0.792-1.512c0-0.144,0.072-0.36,0.145-0.504
		c0.144-0.792,0.144-1.296,0.071-1.728C85.968,17.424,84.888,16.632,84.456,16.704"/>
	<path clip-path="url(#SVGID_2_)" fill="#7A7C7E" d="M75.815,9c-0.071-1.008-1.439-0.864-1.728-0.72s-1.152,0.216-1.296-0.072
		c-0.145-0.216,0.072-1.152-0.145-2.16c-0.216-0.936-1.224-1.728-1.871-1.728c-0.576,0.072-1.369,1.008-1.513,1.44
		c-0.072,0.36,0,2.088,0,2.448c-0.072,0.288-0.648,0.504-1.08,0.576c-0.432,0.144-1.368,0.072-1.8,0
		c-0.432,0-1.008,0.144-1.728,0.936c-0.792,0.792,0.36,1.296,0.936,1.296c0.576,0.072,3.6,0.144,3.6,0.144s0.072,2.808,0,4.608
		v0.504c0,2.232,0.216,7.776,0.216,9.864c0.072,2.232,0.288,3.312,1.296,3.096c1.08-0.216,2.16-2.376,2.16-3.024v-0.144v-0.072
		V25.92v-0.144v-0.072V25.56v-0.144v-0.072c0-1.008-0.072-2.592-0.145-3.888v-0.504c0-1.8,0.145-3.456,0.145-5.472
		c0.071-2.088-0.072-4.248,0.144-4.536s1.08,0.072,1.872-0.144C75.6,10.584,75.815,10.008,75.815,9"/>
	<polygon clip-path="url(#SVGID_2_)" fill="#7A7C7E" points="64.656,33.121 67.32,33.121 67.32,39.168 72.576,39.168 72.576,33.121 
		75.239,33.121 75.239,48.168 72.576,48.168 72.576,41.544 67.32,41.544 67.32,48.168 64.656,48.168 	"/>
	<rect x="77.832" y="33.121" clip-path="url(#SVGID_2_)" fill="#7A7C7E" width="2.664" height="15.048"/>
	<path clip-path="url(#SVGID_2_)" fill="#7A7C7E" d="M87.479,35.568c1.009,0.216,1.729,0.864,1.729,2.232s-0.72,1.943-1.729,2.16
		v2.447c2.593-0.216,4.536-1.512,4.536-4.823c0-3.097-2.088-4.248-4.536-4.465V35.568z M85.752,35.496h0.936
		c0.288,0,0.576,0,0.792,0.072V33.12h-1.008h-3.384v15.049h2.664v-5.761h1.152h0.575V39.96c-0.216,0.071-0.504,0.071-0.792,0.071
		h-0.936V35.496z"/>
	<polygon clip-path="url(#SVGID_2_)" fill="#7A7C7E" points="97.487,33.121 100.08,33.121 100.08,39.168 105.407,39.168 
		105.407,33.121 108.071,33.121 108.071,48.168 105.407,48.168 105.407,41.544 100.08,41.544 100.08,48.168 97.487,48.168 	"/>
	<rect x="110.736" y="33.121" clip-path="url(#SVGID_2_)" fill="#7A7C7E" width="2.592" height="15.048"/>
	<polygon clip-path="url(#SVGID_2_)" fill="#7A7C7E" points="115.992,33.121 119.231,33.121 124.271,44.352 124.344,44.352 
		124.344,33.121 126.863,33.121 126.863,48.168 123.624,48.168 118.513,36.864 118.513,48.168 115.992,48.168 	"/>
	<path clip-path="url(#SVGID_2_)" fill="#7A7C7E" d="M140.472,36c-1.008-0.504-2.376-0.792-3.384-0.792
		c-3.096,0-4.824,2.305-4.824,5.4s1.656,5.4,4.465,5.4c0.72,0,1.296-0.072,1.8-0.217v-3.96h-2.809v-2.376h5.328v8.208
		c-1.439,0.433-2.88,0.721-4.319,0.721c-4.248,0-7.272-2.448-7.272-7.561c0-5.111,2.808-7.992,7.272-7.992
		c1.584,0,2.808,0.217,3.888,0.648L140.472,36z"/>
	<path clip-path="url(#SVGID_2_)" fill="#F79239" d="M22.392,28.512c1.152,0,3.096-0.648,4.608-2.016
		c1.152-1.08,1.944-2.592,1.944-4.608c0,0,0-2.448,0.072-2.448v-9.216h12.816v12.024h11.736C51.264,9.648,40.248,0,27,0
		c-2.808,0-5.472,0.432-7.992,1.224v9h6.408v12.024c0,3.24-3.24,3.24-3.24,3.24h-3.168v3.024h0.648H22.392z M19.008,1.224
		C7.992,4.68,0,14.904,0,27c0,0.504,0,1.008,0.072,1.512h18.936v-3.024H12.6V10.224h6.408V1.224z"/>
	<path clip-path="url(#SVGID_2_)" fill="#F79239" d="M35.424,52.632C46.224,49.104,54,38.952,54,27c0-0.504,0-0.936-0.072-1.44
		H35.424v3.024h6.408v15.191h-6.408V52.632z M32.04,25.56c-1.152,0-3.096,0.576-4.608,2.016c-1.152,1.08-2.016,2.592-2.016,4.608
		v2.376v9.216H12.6V31.824H0.432C2.736,44.352,13.752,53.928,27,53.928c2.952,0,5.76-0.433,8.424-1.296v-8.856h-6.408V31.824
		c0-3.239,3.24-3.239,3.24-3.239h3.168V25.56h-0.648H32.04z"/>
</g>
</svg>
